<svg xmlns="http://www.w3.org/2000/svg" viewBox="0 0 16 16" fill="none">
  <!-- Background -->
  <circle cx="8" cy="8" r="7.5" fill="#2563eb" stroke="#1d4ed8" stroke-width="1"/>
  
  <!-- Shield -->
  <path d="M8 3C6.5 3 5 3.5 3.5 4.5C3.5 8 4.5 12 8 15C11.5 12 12.5 8 12.5 4.5C11 3.5 9.5 3 8 3Z" fill="#ffffff"/>
  
  <!-- Inner Shield -->
  <path d="M8 4.5C7 4.5 6 4.8 5.5 5.2C5.5 7.8 6 10.5 8 12.5C10 10.5 10.5 7.8 10.5 5.2C10 4.8 9 4.5 8 4.5Z" fill="#2563eb"/>
  
  <!-- S Letter -->
  <path d="M6.5 6.5H9.5V7.2H7.2V7.8H9V8.5H7.2V9.1H9.5V9.8H6.5V6.5Z" fill="#ffffff" transform="scale(0.8) translate(1.5, 1)"/>
</svg>